<svg
   xmlns="http://www.w3.org/2000/svg"
   viewBox="0 0 512 512"
   height="512"
   width="512">
  <path
    id="chatbubble-sms-outline"
     d="M 255.83008,32 C 132.2993,32 31.639844,130.25205 32,251.35938 c 0.0023,42.22915 12.395783,83.53411 35.642578,118.78906 l 0.251953,0.38086 0.273438,0.36914 c 0.541291,0.72673 1.039255,1.48347 1.509765,2.25781 1.685578,3.03679 1.023849,7.6072 2.371094,2.64844 l -19.529297,70.65039 c -0.633901,2.15502 -1.037447,4.37127 -1.205078,6.61133 l -0.03516,0.47851 -0.0078,0.48242 C 51.066401,468.08367 62.733253,479.95757 76.791016,480 l 0.859375,0.002 0.851562,-0.0879 c 3.21875,-0.33634 6.369813,-1.16047 9.341797,-2.4414 l -0.902344,0.35742 68.238284,-24.62696 0.39843,-0.16992 c 1.83201,-0.77564 3.8016,-1.17162 5.79102,-1.16406 h 0.0215 0.0215 c 1.84552,0.002 3.67384,0.34371 5.39648,1.00586 l -0.0215,-0.01 c 3.95398,1.5269 17.49606,6.57725 31.83984,10.5918 15.10575,4.22782 39.80199,8.96289 60.78321,8.96289 C 383.08413,472.42011 480,372.39188 480,251.49023 v -0.004 -0.002 c -0.005,-15.11821 -1.6056,-30.194 -4.77344,-44.97657 C 454.05392,106.74092 363.5916,32 255.83008,32 Z m 0,32 c 92.99039,0 170.10174,64.32811 188.09765,149.16992 l 0.004,0.0176 0.004,0.0156 c 2.69775,12.58556 4.06,25.42153 4.06445,38.29297 -0.003,103.91544 -82.06608,188.92383 -188.58984,188.92383 -15.61875,0 -40.32398,-4.46516 -52.15821,-7.77734 -12.59619,-3.52544 -25.95149,-8.47581 -28.9375,-9.62891 l -0.0117,-0.004 -0.0117,-0.004 c -5.36844,-2.06353 -11.07103,-3.12569 -16.82227,-3.13477 -6.01976,-0.0201 -11.97938,1.13723 -17.56055,3.37891 -0.01,0.004 -0.0198,0.006 -0.0293,0.01 l -57.484379,20.74804 16.527349,-59.77929 0.008,-0.0332 c 3.73766,-13.7571 -2.21564,-21.25173 -5.500002,-26.99609 l -0.07422,-0.13086 -0.07813,-0.13086 c -0.913931,-1.53074 -1.906736,-3.01087 -2.951172,-4.45508 C 74.542092,322.45903 63.998741,287.29636 64,251.33984 v -0.0254 -0.0234 C 63.677663,147.91298 149.17177,64 255.83008,64 Z m -79.06446,143.60547 c -5.89333,0 -11.13713,1.12752 -15.73046,3.38086 -4.50667,2.25333 -8.06016,5.28627 -10.66016,9.09961 -2.51333,3.81333 -3.76953,8.06023 -3.76953,12.74023 0,4.07334 0.82404,7.62682 2.4707,10.66016 1.64667,3.03333 3.76914,5.58992 6.36914,7.66992 2.6,1.99333 5.32946,3.59721 8.18946,4.81055 l 11.05078,4.67968 c 3.72666,1.56 6.67317,2.98907 8.83984,4.28907 2.25333,1.21333 3.38086,3.16294 3.38086,5.84961 0,2.51333 -0.9969,4.50713 -2.99023,5.98046 -1.90667,1.47335 -4.85318,2.21094 -8.83985,2.21094 -3.46666,0 -7.06435,-0.82403 -10.79101,-2.4707 -3.72667,-1.64667 -7.1073,-3.76914 -10.14063,-6.36914 l -10.91992,13.1289 c 4.33333,3.98668 9.23141,7.01961 14.69141,9.09961 5.54666,2.08 11.092,3.1211 16.63867,3.1211 6.76,0 12.52435,-1.21396 17.29101,-3.64063 4.76667,-2.42666 8.4066,-5.63247 10.91992,-9.61914 2.51334,-3.98666 3.76954,-8.32 3.76954,-13 0,-5.98 -1.51745,-10.79164 -4.55078,-14.43164 -3.03334,-3.64 -7.10542,-6.49812 -12.21876,-8.57812 l -10.91992,-4.42188 c -3.64,-1.47333 -6.71713,-2.8582 -9.23047,-4.1582 -2.42666,-1.3 -3.64062,-3.25156 -3.64062,-5.85156 0,-2.42667 0.95466,-4.28985 2.86133,-5.58985 1.99333,-1.38666 4.63635,-2.08008 7.92968,-2.08008 3.38,0 6.45714,0.60698 9.23047,1.82032 2.77334,1.12666 5.54503,2.77278 8.31836,4.93945 l 9.75,-12.08984 c -3.64,-3.64 -7.88494,-6.4117 -12.73828,-8.31836 -4.85333,-1.90667 -9.70721,-2.86133 -14.56055,-2.86133 z m 171.33985,0 c -5.89333,0 -11.13714,1.12752 -15.73047,3.38086 -4.50667,2.25333 -8.06016,5.28627 -10.66016,9.09961 -2.51333,3.81333 -3.76953,8.06023 -3.76953,12.74023 0,4.07334 0.82404,7.62682 2.47071,10.66016 1.64666,3.03333 3.76914,5.58992 6.36914,7.66992 2.6,1.99333 5.32945,3.59721 8.18945,4.81055 l 11.05078,4.67968 c 3.72667,1.56 6.67318,2.98907 8.83984,4.28907 2.25334,1.21333 3.38086,3.16294 3.38086,5.84961 0,2.51333 -0.9969,4.50713 -2.99023,5.98046 -1.90667,1.47335 -4.85318,2.21094 -8.83984,2.21094 -3.46667,0 -7.06435,-0.82403 -10.79102,-2.4707 -3.72667,-1.64667 -7.10729,-3.76914 -10.14062,-6.36914 l -10.91993,13.1289 c 4.33334,3.98668 9.23141,7.01961 14.69141,9.09961 5.54667,2.08 11.092,3.1211 16.63867,3.1211 6.76,0 12.52435,-1.21396 17.29102,-3.64063 4.76666,-2.42666 8.40659,-5.63247 10.91992,-9.61914 2.51333,-3.98666 3.76953,-8.32 3.76953,-13 0,-5.98 -1.51745,-10.79164 -4.55078,-14.43164 -3.03333,-3.64 -7.10542,-6.49812 -12.21875,-8.57812 l -10.91992,-4.42188 c -3.64,-1.47333 -6.71714,-2.8582 -9.23047,-4.1582 -2.42667,-1.3 -3.64063,-3.25156 -3.64063,-5.85156 0,-2.42667 0.95466,-4.28985 2.86133,-5.58985 1.99333,-1.38666 4.63636,-2.08008 7.92969,-2.08008 3.38,0 6.45713,0.60698 9.23047,1.82032 2.77333,1.12666 5.54502,2.77278 8.31836,4.93945 l 9.75,-12.08984 c -3.64,-3.64 -7.88495,-6.4117 -12.73828,-8.31836 -4.85334,-1.90667 -9.70722,-2.86133 -14.56055,-2.86133 z m -127.14063,1.56055 v 84.75976 H 238.125 v -31.07031 c 0,-2.77333 -0.17286,-5.85047 -0.51953,-9.23047 -0.26,-3.46667 -0.56349,-6.93177 -0.91016,-10.39844 -0.34666,-3.46666 -0.69239,-6.5438 -1.03906,-9.23047 h 0.51953 l 6.75977,20.15039 12.08984,32.36914 h 10.5293 l 12.08984,-32.36914 6.89063,-20.15039 h 0.51953 c -0.26,2.68667 -0.60573,5.76381 -1.03907,9.23047 l -1.04101,10.39844 c -0.26,3.38 -0.38867,6.45714 -0.38867,9.23047 v 31.07031 h 17.41992 v -84.75976 h -20.80078 l -13.39063,37.69921 c -0.86666,2.42667 -1.68875,4.98326 -2.46875,7.66993 -0.69333,2.68666 -1.47317,5.33164 -2.33984,7.93164 h -0.52148 c -0.86667,-2.6 -1.68876,-5.24498 -2.46876,-7.93164 -0.77998,-2.68667 -1.60403,-5.24326 -2.4707,-7.66993 l -13.65039,-37.69921 z"
    />
</svg>
