<svg
   xmlns="http://www.w3.org/2000/svg"
   viewBox="0 0 512 512"
   height="512"
   width="512">
  <path
     id="mail-open-outline"
     d="m 256,66.839844 c -6.14855,0 -12.29778,1.393711 -17.94922,4.18164 a 16.0016,16.0016 0 0 0 -0.002,0 L 63.359375,157.24219 C 44.260098,166.60027 32.074457,186.06545 32,207.33398 a 16.0016,16.0016 0 0 0 0,0.0566 V 392 c 0,30.84932 25.603338,56 56.519531,56 H 423.51953 c 30.91619,0 56.51953,-25.15068 56.51953,-56 V 207.39062 a 16.0016,16.0016 0 0 0 0,-0.0645 c -0.0849,-21.28102 -12.29506,-40.74952 -31.41601,-50.09179 l 0.0586,0.0273 -174.73047,-86.240236 a 16.0016,16.0016 0 0 0 -0.002,0 C 268.29782,68.233645 262.14855,66.839844 256,66.839844 Z m 0,31.990234 c 1.29522,0 2.59001,0.296201 3.79102,0.888672 l 170.06054,83.93359 -123.35742,93.42578 -28.60156,-22.24804 c -7.1903,-5.59271 -15.87262,-8.38867 -24.55664,-8.38867 -8.68402,0 -17.3683,2.79596 -24.5586,8.38867 L 200.33594,276.95117 78.929688,185.24219 252.20898,99.71875 c 1.20101,-0.592471 2.4958,-0.888672 3.79102,-0.888672 z M 448.03906,210.01758 V 392 c 0,13.33068 -10.67572,24 -24.51953,24 H 88.519531 C 74.675724,416 64,405.33068 64,392 V 214.07031 l 110.17578,83.22657 -74.667968,58.07421 a 16.0016,16.0016 0 1 0 19.644528,25.25782 L 248.42188,280.08984 a 16.0016,16.0016 0 0 0 0.002,0 c 2.95304,-2.29691 6.86922,-2.29691 9.82226,0 l 129.25977,100.53907 a 16.0016,16.0016 0 1 0 19.64844,-25.25782 l -74.51172,-57.95703 z"
    />
</svg>
